<svg xmlns="http://www.w3.org/2000/svg" width="63" height="452" viewBox="0 0 63 452">
  <g fill="none" fill-rule="evenodd">
    <path fill="#3BC8F5" d="M4.42801547,7.0520246 L18.8600659,17.9580627 C19.188067,18.2040636 19.5160682,18.3680642 19.9260696,18.3680642 L20.0080699,18.3680642 L20.2540708,18.3680642 L20.5000716,18.3680642 L20.5820719,18.3680642 C20.9920733,18.2860639 21.3200745,18.2040636 21.6480756,17.9580627 L36.0801261,7.0520246 C36.3261269,6.8880241 36.4901275,6.6420232 36.6541281,6.3960223 L36.6541281,13.6120476 L40.6721421,13.6120476 L40.6721421,4.3460152 C40.6721421,1.9680069 38.7041352,-7.10542736e-15 36.3261269,-7.10542736e-15 L4.34601518,-7.10542736e-15 C1.96800688,-7.10542736e-15 0,1.9680069 0,4.3460152 L0,24.4360854 C0,26.8140937 1.96800688,28.7821006 4.34601518,28.7821006 L20.6640722,28.7821006 L20.6640722,24.7640865 L5.33001862,24.7640865 C4.59201604,24.7640865 4.01801404,24.1900845 4.01801404,23.4520819 L4.01801404,6.4780226 C4.10001433,6.7240235 4.2640149,6.8880241 4.42801547,7.0520246 L4.42801547,7.0520246 L4.42801547,7.0520246 Z M32.4721135,4.018014 L20.2540708,13.2840464 L8.03602808,4.018014 L32.4721135,4.018014 L32.4721135,4.018014 L32.4721135,4.018014 Z M46.0021607,25.6660897 L39.2781372,19.0240665 C39.0321364,18.7780656 38.6221349,18.7780656 38.2941338,18.9420662 C37.9661327,19.1060668 37.8021321,19.4340679 37.8021321,19.762069 L37.8021321,23.5340822 L27.6340966,23.5340822 C27.1420948,23.5340822 26.7320934,23.9440837 26.7320934,24.4360854 L26.7320934,28.3720991 C26.7320934,28.8641008 27.1420948,29.2741023 27.6340966,29.2741023 L37.8021321,29.2741023 L37.8021321,33.0461155 C37.8021321,33.3741166 37.9661327,33.7021178 38.2941338,33.8661183 C38.6221349,34.0301189 38.9501361,34.0301189 39.2781372,33.784118 L46.0021607,27.1420948 C46.2481616,26.9780943 46.4121622,26.6500931 46.4121622,26.4040923 C46.4121622,26.1580914 46.2481616,25.8300902 46.0021607,25.6660897 L46.0021607,25.6660897 L46.0021607,25.6660897 Z"/>
    <path fill="#3BC8F5" d="M31.4391016,11.3815145 L7.83645263,11.3815145 C7.36999712,11.3815145 6.99683271,11.0083501 6.99683271,10.5418946 L6.99683271,7.0901238 C6.99683271,6.6236683 7.36999712,6.2505039 7.83645263,6.2505039 L31.4391016,6.2505039 C31.9055572,6.2505039 32.2787216,6.6236683 32.2787216,7.0901238 L32.2787216,10.5418946 C32.3720127,11.0083501 31.9055572,11.3815145 31.4391016,11.3815145 M31.4391016,21.8301181 L7.83645263,21.8301181 C7.36999712,21.8301181 6.99683271,21.4569536 6.99683271,20.9904981 L6.99683271,17.5387273 C6.99683271,17.0722718 7.36999712,16.6991074 7.83645263,16.6991074 L31.4391016,16.6991074 C31.9055572,16.6991074 32.2787216,17.0722718 32.2787216,17.5387273 L32.2787216,20.9904981 C32.3720127,21.4569536 31.9055572,21.8301181 31.4391016,21.8301181 M35.1707458,0 L4.10480852,0 C1.86582206,0 0,1.86582206 0,4.10480852 L0,25.0953067 C0,27.3342931 1.86582206,29.2001152 4.10480852,29.2001152 L22.9496113,29.2001152 C23.2294846,29.2001152 23.4160668,29.2934063 23.602649,29.4799885 L29.3866974,35.7304924 C29.946444,36.290239 30.879355,35.9170746 30.879355,35.1707458 L30.879355,30.0397351 C30.879355,29.5732796 31.2525194,29.2001152 31.7189749,29.2001152 L35.2640369,29.2001152 C37.5030233,29.2001152 39.3688454,27.3342931 39.3688454,25.0953067 L39.3688454,4.10480852 C39.2755543,1.86582206 37.4097322,0 35.1707458,0" transform="translate(0 34)"/>
    <path fill="#3BC8F5" d="M21.118342,18.401816 C21.365507,18.648981 21.715899,18.763702 22.06135,18.710423 L33.242484,18.634118 C33.651095,18.570957 33.989564,18.283833 34.118034,17.890904 C34.246611,17.498083 34.143491,17.06627 33.851104,16.773883 L30.727586,13.650365 L39.198648,5.179304 C39.627131,4.75082 39.627239,4.056159 39.198755,3.627676 L35.892483,0.321403 C35.463999,-0.107081 34.769338,-0.107188 34.340747,0.321403 L25.869686,8.792464 L22.746168,5.668947 C22.453781,5.37656 22.022075,5.273547 21.629146,5.402017 C21.236218,5.530487 20.948987,5.869063 20.885933,6.277567 L20.809735,17.458809 C20.756457,17.804259 20.871177,18.154651 21.118342,18.401816 L21.118342,18.401816 Z M28.163967,26.998956 C26.953685,25.804092 25.442761,25.804092 24.240188,26.998956 C23.322841,27.908594 22.405493,28.818232 21.503564,29.743288 C21.256882,29.997679 21.048745,30.05164 20.748101,29.882047 C20.154524,29.558277 19.522402,29.296178 18.951951,28.941573 C16.292415,27.268764 14.064572,25.118008 12.091119,22.697445 C11.112101,21.494872 10.241007,20.207503 9.632012,18.758248 C9.508671,18.465314 9.531797,18.272594 9.77077,18.033621 C10.688117,17.147109 11.582338,16.237471 12.484268,15.327832 C13.740802,14.063589 13.740802,12.5835 12.476559,11.311548 C11.759641,10.58692 11.042722,9.877711 10.325804,9.153084 C9.585759,8.413039 8.853423,7.665285 8.105669,6.932949 C6.895388,5.753503 5.384463,5.753503 4.18189,6.940658 C3.256834,7.850296 2.370322,8.783061 1.429848,9.677282 C0.558754,10.502124 0.119352,11.511976 0.026847,12.691423 C-0.11962,14.610914 0.350616,16.422482 1.013573,18.187797 C2.370322,21.841768 4.43628,25.087173 6.94164,28.06277 C10.325804,32.086764 14.365215,35.270498 19.090709,37.56772 C21.218338,38.6007 23.423055,39.394706 25.820492,39.525756 C27.470175,39.618261 28.904012,39.201986 30.052623,37.914616 C30.838921,37.035813 31.725433,36.234098 32.557983,35.393839 C33.791391,34.145013 33.7991,32.634088 32.573401,31.40068 C31.108729,29.9283 29.636348,28.463628 28.163967,26.998956 L28.163967,26.998956 Z" transform="translate(0 70)"/>
    <path fill="#3BC8F5" d="M32.6056338,0 L2.3943662,0 C1.12676056,0 0,1.05633803 0,2.3943662 L0,10.6338028 C0,11.9014085 1.05633803,13.028169 2.3943662,13.028169 L32.6056338,13.028169 C33.8732394,13.028169 35,11.971831 35,10.6338028 L35,2.3943662 C35,1.05633803 33.943662,0 32.6056338,0 L32.6056338,0 L32.6056338,0 Z M31.5492958,8.7323944 C31.5492958,9.1549296 31.1971831,9.5070423 30.7746479,9.5070423 L4.29577465,9.5070423 C3.87323944,9.5070423 3.52112676,9.1549296 3.52112676,8.7323944 L3.52112676,4.22535211 C3.52112676,3.8028169 3.87323944,3.45070423 4.29577465,3.45070423 L30.7746479,3.45070423 C31.1971831,3.45070423 31.5492958,3.8028169 31.5492958,4.22535211 L31.5492958,8.7323944 L31.5492958,8.7323944 L31.5492958,8.7323944 Z M32.6056338,17.1830986 L2.3943662,17.1830986 C1.12676056,17.1830986 0,18.2394366 0,19.5774648 L0,27.8169014 C0,29.084507 1.05633803,30.2112676 2.3943662,30.2112676 L32.6056338,30.2112676 C33.8732394,30.2112676 35,29.1549296 35,27.8169014 L35,19.5774648 C35,18.2394366 33.943662,17.1830986 32.6056338,17.1830986 L32.6056338,17.1830986 L32.6056338,17.1830986 Z M31.5492958,25.915493 C31.5492958,26.3380282 31.1971831,26.6901408 30.7746479,26.6901408 L4.29577465,26.6901408 C3.87323944,26.6901408 3.52112676,26.3380282 3.52112676,25.915493 L3.52112676,21.4084507 C3.52112676,20.9859155 3.87323944,20.6338028 4.29577465,20.6338028 L30.7746479,20.6338028 C31.1971831,20.6338028 31.5492958,20.9859155 31.5492958,21.4084507 L31.5492958,25.915493 L31.5492958,25.915493 L31.5492958,25.915493 Z" transform="translate(0 110)"/>
    <path fill="#3BC8F5" d="M31.901031,0 L3.997056,0 C1.809988,0 0,1.809988 0,3.997056 L0,24.736497 C0,26.923565 1.809988,28.733553 3.997056,28.733553 L31.901031,28.733553 C34.0881,28.733553 35.898087,26.923565 35.898087,24.736497 L35.898087,3.997056 C35.898087,1.809988 34.0881,0 31.901031,0 L31.901031,0 L31.901031,0 Z M32.202696,23.831503 C32.202696,24.510249 31.674783,25.038162 30.996038,25.038162 L4.90205,25.038162 C4.223304,25.038162 3.695391,24.510249 3.695391,23.831503 L3.695391,4.90205 C3.695391,4.223304 4.223304,3.695391 4.90205,3.695391 L30.996038,3.695391 C31.674783,3.695391 32.202696,4.223304 32.202696,4.90205 L32.202696,23.831503 L32.202696,23.831503 L32.202696,23.831503 Z M27.979392,16.666969 L8.446609,16.666969 C7.918696,16.666969 7.390783,17.119466 7.390783,17.722795 L7.390783,20.211528 C7.390783,20.739441 7.84328,21.267354 8.446609,21.267354 L27.979392,21.267354 C28.507305,21.267354 29.035218,20.814857 29.035218,20.211528 L29.035218,17.722795 C28.959802,17.194882 28.507305,16.666969 27.979392,16.666969 L27.979392,16.666969 L27.979392,16.666969 Z M27.979392,7.994112 L8.446609,7.994112 C7.918696,7.994112 7.390783,8.446609 7.390783,9.049938 L7.390783,11.538671 C7.390783,12.066584 7.84328,12.594497 8.446609,12.594497 L27.979392,12.594497 C28.507305,12.594497 29.035218,12.142 29.035218,11.538671 L29.035218,9.049938 C28.959802,8.446609 28.507305,7.994112 27.979392,7.994112 L27.979392,7.994112 L27.979392,7.994112 Z" transform="translate(0 175)"/>
    <path fill="#3BC8F5" d="M0.0853485064,10.0711238 L4.26742532,10.0711238 L4.26742532,29.1038407 L8.10810811,29.1038407 L8.10810811,6.1450925 L0,6.1450925 L0,10.0711238 L0.0853485064,10.0711238 L0.0853485064,10.0711238 Z M20.4836415,14.2532006 C20.4836415,8.5348506 25.0924609,3.9260313 30.8108108,3.9260313 C36.3584637,3.9260313 40.9672831,8.3641536 41.1379801,13.9118065 L44.9786629,13.9118065 C44.8079659,6.230441 38.4921764,0 30.7254623,0 C22.8733997,0 16.4722617,6.401138 16.4722617,14.2532006 C16.4722617,22.1052632 22.8733997,28.5064011 30.7254623,28.5064011 L59.9146515,28.5064011 L59.9146515,24.6657183 L30.7254623,24.6657183 C25.0924609,24.5803698 20.4836415,19.9715505 20.4836415,14.2532006 L20.4836415,14.2532006 L20.4836415,14.2532006 Z M3.32859175,4.2674253 L9.81507824,4.2674253 L9.81507824,29.1891892 L13.655761,29.1891892 L13.655761,0.42674253 L3.32859175,0.42674253 L3.32859175,4.2674253 L3.32859175,4.2674253 L3.32859175,4.2674253 Z M25.9459459,14.2532006 C25.9459459,11.6073969 28.1650071,9.3883357 30.8108108,9.3883357 C33.371266,9.3883357 35.5049787,11.3513514 35.6756757,13.9118065 L39.5163585,13.9118065 C39.3456615,9.2176387 35.5049787,5.5476529 30.8108108,5.5476529 C26.0312945,5.5476529 22.1052632,9.4736842 22.1052632,14.2532006 C22.1052632,19.0327169 26.0312945,22.9587482 30.8108108,22.9587482 L60,22.9587482 L60,19.1180654 L30.8108108,19.1180654 C28.1650071,19.1180654 25.9459459,16.8990043 25.9459459,14.2532006 L25.9459459,14.2532006 Z" transform="translate(0 204)"/>
    <g fill="#535C69" transform="translate(50)" opacity=".5">
      <path d="M3,3 L3,4.37513622 L8.18316548,4.37513622 C9.56457742,4.37513622 10.688421,5.50628042 10.688421,6.89587368 C10.688421,8.28546693 9.56422411,9.41661113 8.18316548,9.41661113 L6.61751045,9.41661113 C6.2398731,9.41661113 5.93401805,9.72435629 5.93401805,10.1040311 C5.93401805,10.4836467 6.2398731,10.7914511 6.61751045,10.7914511 L8.18316548,10.7914511 C10.3182033,10.7914511 12.0547581,9.04380932 12.0547581,6.89593293 C12.0547581,4.74805653 10.3181444,3 8.18316548,3 L3,3 L3,3 Z"/>
      <polygon points="1.013 1.013 3.457 3.457 5.902 5.902 1.013 5.902" transform="rotate(45 3.457 3.457)"/>
    </g>
    <polygon fill="#80868E" points="8 5 8 0 5 0 5 5 0 5 0 8 5 8 5 13 8 13 8 8 13 8 13 5" transform="translate(50 104)" opacity=".5"/>
    <polygon fill="#2D323A" points="8 5 8 0 5 0 5 5 0 5 0 8 5 8 5 13 8 13 8 8 13 8 13 5" transform="translate(50 119)" opacity=".5"/>
    <g fill="#535C69" transform="rotate(-180 31.5 11)" opacity=".5">
      <path d="M3,3 L3,4.37513622 L8.18316548,4.37513622 C9.56457742,4.37513622 10.688421,5.50628042 10.688421,6.89587368 C10.688421,8.28546693 9.56422411,9.41661113 8.18316548,9.41661113 L6.61751045,9.41661113 C6.2398731,9.41661113 5.93401805,9.72435629 5.93401805,10.1040311 C5.93401805,10.4836467 6.2398731,10.7914511 6.61751045,10.7914511 L8.18316548,10.7914511 C10.3182033,10.7914511 12.0547581,9.04380932 12.0547581,6.89593293 C12.0547581,4.74805653 10.3181444,3 8.18316548,3 L3,3 L3,3 Z"/>
      <polygon points="1.013 1.013 3.457 3.457 5.902 5.902 1.013 5.902" transform="rotate(45 3.457 3.457)"/>
    </g>
    <polygon fill="#535C69" points="2.743 5.743 2.743 1.243 1.243 1.243 1.243 6.493 1.243 7.243 7.243 7.243 7.243 5.743" transform="rotate(-45 57.799 -49.941)" opacity=".5"/>
    <polygon fill="#000000" points="2.743 5.743 2.743 1.243 1.243 1.243 1.243 6.493 1.243 7.243 7.243 7.243 7.243 5.743" transform="rotate(-45 67.456 -45.941)" opacity=".5"/>
    <path fill="#80868E" d="M0.42900031,0.8422759 C0.78158916,1.0458621 5.66381081,3.8631724 5.8455219,3.968069 C6.0273774,4.0729655 6.2628219,4.1235517 6.4999996,4.1235517 C6.7373218,4.1235517 6.9724773,4.0729655 7.1544773,3.968069 C7.3361884,3.8631724 12.21841,1.0460172 12.5708544,0.8422759 C12.9237322,0.6388448 13.2576877,0 12.6095656,0 L0.39043365,0 C-0.25725516,0 0.07612258,0.6388448 0.42900031,0.8422759 L0.42900031,0.8422759 L0.42900031,0.8422759 Z M12.7203544,2.394 C12.31981,2.6185345 7.3997439,5.3826207 7.1544773,5.5197931 C6.9090662,5.657431 6.7371774,5.6752759 6.4999996,5.6752759 C6.2628219,5.6752759 6.090933,5.657431 5.8455219,5.5197931 C5.60025526,5.3826207 0.68047806,2.6185345 0.27964478,2.394 C-0.00245519,2.2361897 3.60000047e-07,2.4213103 3.60000047e-07,2.5643793 L3.60000047e-07,8.2559483 C3.60000047e-07,8.5811897 0.40328921,9 0.71630028,9 L12.2836989,9 C12.59671,9 12.9999988,8.5811897 12.9999988,8.2559483 L12.9999988,2.5643793 C12.9999988,2.4213103 13.0028877,2.2361897 12.7203544,2.394 L12.7203544,2.394 L12.7203544,2.394 Z" transform="translate(50 41)" opacity=".5"/>
    <path fill="#3BC8F5" d="M0.42900031,0.842276 C0.78158916,1.045862 5.66381081,3.863172 5.8455219,3.968069 C6.02737744,4.072966 6.26282185,4.123552 6.4999996,4.123552 C6.7373218,4.123552 6.97247732,4.072966 7.1544773,3.968069 C7.3361884,3.863172 12.21841,1.046017 12.5708544,0.842276 C12.9237322,0.638845 13.2576877,0 12.6095656,0 L0.39043365,0 C-0.25725516,0 0.07612258,0.638845 0.42900031,0.842276 L0.42900031,0.842276 L0.42900031,0.842276 Z M12.7203544,2.394 C12.31981,2.618534 7.3997439,5.382621 7.1544773,5.519793 C6.90906622,5.657431 6.73717735,5.675276 6.4999996,5.675276 C6.26282185,5.675276 6.09093298,5.657431 5.8455219,5.519793 C5.60025526,5.382621 0.68047806,2.618534 0.27964478,2.394 C-0.00245519,2.23619 3.59999999e-07,2.42131 3.59999999e-07,2.564379 L3.59999999e-07,8.255948 C3.59999999e-07,8.58119 0.40328921,9 0.71630028,9 L12.2836989,9 C12.59671,9 12.9999988,8.58119 12.9999988,8.255948 L12.9999988,2.564379 C12.9999988,2.42131 13.0028877,2.23619 12.7203544,2.394 L12.7203544,2.394 L12.7203544,2.394 Z" transform="translate(50 52)"/>
    <g transform="translate(51 62)">
      <path fill="#F16C09" d="M4.29,16 C1.76154351,15.0733805 0.0590378675,12.6922538 0,10 C0,5.46 4.49,1.213 7,0 C6.52,4.191 12,5.287 12,10.75 C12,14.627 7.71,16 7.71,16 L4.29,16 L4.29,16 L4.29,16 Z"/>
      <path fill="#FFFFFF" d="M5,16 C3.81822444,14.9932558 3.09633002,13.549467 3,12 C3.1332216,9.94645649 4.25074236,8.08392189 6,7 C7.48,10.148 9,9.8 9,12 C8.996868,13.5730455 8.2565572,15.0536671 7,16 L5,16 L5,16 L5,16 Z"/>
    </g>
    <g transform="translate(51 82)">
      <path fill="#80868E" d="M4.29,16 C1.76154351,15.0733805 0.0590378675,12.6922538 0,10 C0,5.46 4.49,1.213 7,0 C6.52,4.191 12,5.287 12,10.75 C12,14.627 7.71,16 7.71,16 L4.29,16 L4.29,16 L4.29,16 Z"/>
      <path fill="#FFFFFF" d="M5,16 C3.81822444,14.9932558 3.09633002,13.549467 3,12 C3.1332216,9.94645649 4.25074236,8.08392189 6,7 C7.48,10.148 9,9.8 9,12 C8.996868,13.5730455 8.2565572,15.0536671 7,16 L5,16 L5,16 L5,16 Z"/>
    </g>
    <g transform="translate(52 134)" opacity=".5">
      <path fill="#535C69" d="M7.22769291,6.24654784 C6.95416791,6.51777464 6.68064191,6.78900134 6.41171391,7.06482514 C6.33816091,7.14067674 6.27610091,7.15676644 6.18645791,7.10619874 C6.00947091,7.00966044 5.82099191,6.93151034 5.65089991,6.82577784 C4.85790691,6.32699654 4.19363091,5.68570614 3.60520691,4.96396724 C3.31329291,4.60539624 3.05355891,4.22154144 2.87197491,3.78941754 C2.83519891,3.70207334 2.84209391,3.64461004 2.91334891,3.57335554 C3.18687391,3.30902444 3.45350391,3.03779764 3.72243191,2.76657094 C4.09709291,2.38961174 4.09709291,1.94829364 3.72013391,1.56903594 C3.50636991,1.35297394 3.29260691,1.14150904 3.07884291,0.925447039 C2.85818391,0.704788039 2.63982391,0.481830439 2.41686591,0.263469939 C2.05599691,-0.0882054606 1.60548391,-0.0882054606 1.24691291,0.265768439 C0.971089907,0.536995239 0.706758907,0.815117539 0.426337907,1.08174724 C0.166603907,1.32769014 0.0355869075,1.62879774 0.00800490746,1.98047314 C-0.0356670925,2.55280744 0.104542907,3.09296244 0.302216907,3.61932614 C0.706758907,4.70883024 1.32276491,5.67651204 2.06978791,6.56374524 C3.07884291,7.76357884 4.28327391,8.71287234 5.69227391,9.39783484 C6.32666791,9.70583804 6.98404891,9.94258684 7.69889191,9.98166184 C8.19077791,10.0092442 8.61830491,9.88512354 8.96078591,9.50126874 C9.19523591,9.23923614 9.45956691,9.00018884 9.70780891,8.74964884 C10.0755739,8.37728674 10.0778719,7.92677454 9.71240591,7.55900944 C9.27568491,7.11998994 8.83666491,6.68326894 8.39764591,6.24654784 C8.03677591,5.89027544 7.58626391,5.89027544 7.22769291,6.24654784 L7.22769291,6.24654784 Z"/>
      <path fill="#2D333A" d="M8.22769291,17.2465478 C7.95416791,17.5177746 7.68064191,17.7890013 7.41171391,18.0648251 C7.33816091,18.1406767 7.27610091,18.1567664 7.18645791,18.1061987 C7.00947091,18.0096604 6.82099191,17.9315103 6.65089991,17.8257778 C5.85790691,17.3269965 5.19363091,16.6857061 4.60520691,15.9639672 C4.31329291,15.6053962 4.05355891,15.2215414 3.87197491,14.7894175 C3.83519891,14.7020733 3.84209391,14.64461 3.91334891,14.5733555 C4.18687391,14.3090244 4.45350391,14.0377976 4.72243191,13.7665709 C5.09709291,13.3896117 5.09709291,12.9482936 4.72013391,12.5690359 C4.50636991,12.3529739 4.29260691,12.141509 4.07884291,11.925447 C3.85818391,11.704788 3.63982391,11.4818304 3.41686591,11.2634699 C3.05599691,10.9117945 2.60548391,10.9117945 2.24691291,11.2657684 C1.97108991,11.5369952 1.70675891,11.8151175 1.42633791,12.0817472 C1.16660391,12.3276901 1.03558691,12.6287977 1.00800491,12.9804731 C0.964332907,13.5528074 1.10454291,14.0929624 1.30221691,14.6193261 C1.70675891,15.7088302 2.32276491,16.676512 3.06978791,17.5637452 C4.07884291,18.7635788 5.28327391,19.7128723 6.69227391,20.3978348 C7.32666791,20.705838 7.98404891,20.9425868 8.69889191,20.9816618 C9.19077791,21.0092442 9.61830491,20.8851235 9.96078591,20.5012687 C10.1952359,20.2392361 10.4595669,20.0001888 10.7078089,19.7496488 C11.0755739,19.3772867 11.0778719,18.9267745 10.7124059,18.5590094 C10.2756849,18.1199899 9.83666491,17.6832689 9.39764591,17.2465478 C9.03677591,16.8902754 8.58626391,16.8902754 8.22769291,17.2465478 L8.22769291,17.2465478 Z"/>
    </g>
    <polygon fill="#535C69" points="4.899 4.268 5 4.167 .833 0 0 .833 3.434 4.268 0 7.702 .833 8.536 5 4.369" transform="translate(57 157)" opacity=".3"/>
    <polygon fill="#535C69" points="4.899 4.268 5 4.167 .833 0 0 .833 3.434 4.268 0 7.702 .833 8.536 5 4.369" transform="matrix(-1 0 0 1 56 157)" opacity=".3"/>
    <polygon fill="#000000" points="4.899 4.268 5 4.167 .833 0 0 .833 3.434 4.268 0 7.702 .833 8.536 5 4.369" transform="translate(57 168)" opacity=".3"/>
    <polygon fill="#000000" points="4.899 4.268 5 4.167 .833 0 0 .833 3.434 4.268 0 7.702 .833 8.536 5 4.369" transform="matrix(-1 0 0 1 56 168)" opacity=".3"/>
    <path fill="#3BC8F5" d="M39.5918367,0 L7.75510204,0 C5.3877551,0 3.42857143,1.9820113 3.42857143,4.3769415 L3.42857143,18.2510204 L7.42857143,18.2510204 L7.42857143,6.6067042 C7.59183673,6.7718718 7.67346939,6.9370394 7.91836735,7.102207 L22.2857143,18.0858528 C22.6122449,18.3336042 22.9387755,18.4987718 23.3469388,18.4987718 L23.4285714,18.4987718 L23.6734694,18.4987718 L23.9183673,18.4987718 L24,18.4987718 C24.4081633,18.416188 24.7346939,18.3336042 25.0612245,18.0858528 L39.4285714,7.102207 C39.6734694,6.9370394 39.8367347,6.689288 40,6.4415366 L40,23.7015514 C40,24.4448056 39.4285714,25.0228923 38.6938776,25.0228923 L23.8367347,25.0228923 L23.8367347,29.0694986 L39.6734694,29.0694986 C42.0408163,29.0694986 44,27.0874873 44,24.692557 L44,4.4595254 C43.9183673,1.9820113 41.9591837,0 39.5918367,0 L39.5918367,0 L39.5918367,0 Z M23.5918367,13.3785761 L11.4285714,4.0466063 L35.755102,4.0466063 L23.5918367,13.3785761 L23.5918367,13.3785761 L23.5918367,13.3785761 Z M19.1836735,25.8487303 L12.4897959,19.1594423 C12.244898,18.9116908 11.8367347,18.9116908 11.5102041,19.0768585 C11.1836735,19.2420261 11.0204082,19.5723613 11.0204082,19.9026965 L11.0204082,23.7015514 L0.897959184,23.7015514 C0.408163265,23.7015514 0,24.1144704 0,24.6099732 L0,28.5739958 C0,29.0694986 0.408163265,29.4824176 0.897959184,29.4824176 L11.0204082,29.4824176 L11.0204082,33.2812725 C11.0204082,33.6116077 11.1836735,33.941943 11.5102041,34.1071106 C11.8367347,34.2722782 12.1632653,34.2722782 12.4897959,34.0245268 L19.1836735,27.3352387 C19.4285714,27.1700711 19.5918367,26.8397359 19.5918367,26.5919845 C19.5918367,26.2616493 19.4285714,26.0138979 19.1836735,25.8487303 L19.1836735,25.8487303 L19.1836735,25.8487303 Z" transform="translate(0 234)"/>
    <path fill="#3BC8F5" d="M30.4767734,28.545506 C30.4767734,29.217978 29.9255139,29.741011 29.2167517,29.741011 L5.67009737,29.741011 C4.9613352,29.741011 4.41007573,29.217978 4.41007573,28.545506 L4.41007573,6.204494 C4.41007573,5.532022 4.9613352,5.008989 5.67009737,5.008989 L21.892876,5.008989 L26.381703,0.75 L4.17382167,0.75 C1.89003246,0.75 0,2.543258 0,4.710112 L0,30.039888 C0,32.206742 1.89003246,34 4.17382167,34 L30.8705301,34 C33.1543193,34 35.0443518,32.206742 35.0443518,30.039888 L35.0443518,20.251685 L30.5555247,24.510674 L30.5555247,28.545506 L30.4767734,28.545506 L30.4767734,28.545506 Z M37.5643951,6.204494 L35.5168599,4.261798 C34.9656004,3.738764 34.0993356,3.738764 33.6268275,4.261798 L19.3728327,17.711236 L12.9939731,11.658989 C12.4427137,11.135955 11.5764488,11.135955 11.1039407,11.658989 L9.0564055,13.601685 C8.5051461,14.124719 8.5051461,14.946629 9.0564055,15.394944 L18.5065678,24.361236 C18.8215732,24.660112 19.2940813,24.809551 19.7665894,24.734831 C20.0028435,24.660112 20.2390976,24.585393 20.4753516,24.361236 L37.7218978,7.997753 C38.1156545,7.549438 38.1156545,6.727528 37.5643951,6.204494 L37.5643951,6.204494 L37.5643951,6.204494 Z" transform="translate(0 269)"/>
    <path fill="#3BC8F5" d="M35,17.567278 C35,17.263076 34.850878,16.976855 34.5985806,16.797057 L27.4753907,9.963353 C27.1768749,9.750769 26.7810288,9.719172 26.4511118,9.881915 C26.1211948,10.044526 25.9132125,10.373714 25.9132125,10.733573 L25.9132125,14.577882 L15.1930163,14.577882 C14.650767,14.577882 14.2111495,15.005297 14.2111495,15.532659 L14.2111495,19.601896 C14.2111495,20.129258 14.6506311,20.556805 15.1930163,20.556805 L25.9132125,20.556805 L25.9132125,24.401114 C25.9132125,24.760974 26.1211948,25.090029 26.4511118,25.252772 C26.7810288,25.415515 27.1770108,25.383918 27.4753907,25.171335 L34.5985806,18.337498 C34.850878,18.1577 35,17.871479 35,17.567278 L35,17.567278 Z M11.7482928,24.698098 C10.5922603,24.693354 9.4362278,24.68861 8.2801954,24.702842 C7.9631401,24.707585 7.7972957,24.612708 7.7143736,24.323333 C7.5436515,23.758815 7.3095183,23.208528 7.1729407,22.639266 C6.5485856,19.973221 6.4998078,17.278713 6.7827187,14.574718 C6.9241742,13.232208 7.187574,11.903929 7.7192514,10.63732 C7.8265624,10.381152 7.9631401,10.276788 8.2655621,10.276788 C9.4069612,10.295763 10.5483603,10.286275 11.6946372,10.281532 C13.2896694,10.276788 14.226202,9.365968 14.2310798,7.805241 C14.2359576,6.918141 14.2310798,6.040528 14.2359576,5.153428 C14.2359576,4.242608 14.2457131,3.331788 14.2359576,2.420969 C14.2164465,0.950375 13.2604027,0.02058 11.7482928,0.011092 C10.5873825,0.001604 9.4362278,0.030067 8.2753176,0.001604 C7.2022073,-0.026859 6.2851858,0.324186 5.4803531,0.993069 C4.1731096,2.084155 3.3243769,3.488336 2.6268552,4.982649 C1.1732785,8.066153 0.4269791,11.334667 0.1294349,14.707545 C-0.2754204,19.266387 0.2660125,23.711377 1.8025114,28.033026 C2.4951553,29.978005 3.387788,31.823363 4.8218535,33.379347 C5.8071639,34.451457 6.9778297,35.077646 8.5192063,34.992257 C9.5728055,34.93533 10.641038,34.987513 11.699515,34.982769 C13.2701583,34.973281 14.2310798,34.04823 14.2359576,32.534941 C14.2408353,30.727534 14.2359576,28.920126 14.2310798,27.112718 C14.2213242,25.632637 13.2652805,24.702842 11.7482928,24.698098 L11.7482928,24.698098 Z" transform="translate(0 308)"/>
    <path fill="#535C69" d="M9.851224,5.23427412 L4.6846224,0.13771312 C4.4681026,-0.0208318799 4.180987,-0.0443958799 3.9416911,0.0769771201 C3.7023953,0.19825212 3.5515413,0.44375912 3.5515413,0.71214112 L3.5515413,3.57921812 L0.7121689,3.57921812 C0.3188639,3.57921812 0,3.89798312 0,4.29128812 L0,7.32611612 C0,7.71942112 0.3187653,8.03828512 0.7121689,8.03828512 L3.5515413,8.03828512 L3.5515413,10.9053611 C3.5515413,11.1737441 3.7023953,11.4191521 3.9416911,11.5405261 C4.180987,11.6618991 4.4682012,11.6383341 4.6846224,11.4797901 L9.851224,6.38313012 C10.0342207,6.24903812 10.142382,6.03557512 10.142382,5.80870212 C10.142382,5.58183012 10.0342207,5.36836612 9.851224,5.23427412 L9.851224,5.23427412 Z M11.148776,6.38322912 L16.3153776,11.4797901 C16.5318974,11.6383341 16.819013,11.6618991 17.0583089,11.5405261 C17.2976047,11.4192511 17.4484587,11.1737441 17.4484587,10.9053611 L17.4484587,8.03828512 L20.2878311,8.03828512 C20.6811361,8.03828512 21,7.71951912 21,7.32621412 L21,4.29138712 C21,3.89808212 20.6812347,3.57921812 20.2878311,3.57921812 L17.4484587,3.57921812 L17.4484587,0.71214112 C17.4484587,0.44375912 17.2976047,0.19835012 17.0583089,0.0769771201 C16.819013,-0.0443958799 16.5317988,-0.0208318799 16.3153776,0.13771312 L11.148776,5.23437212 C10.9657793,5.36846512 10.857618,5.58192812 10.857618,5.80880112 C10.857618,6.03567312 10.9657793,6.24913712 11.148776,6.38322912 L11.148776,6.38322912 Z" transform="translate(0 348)"/>
    <path fill="#3BC8F5" d="M19.960817,10.605828 L9.492109,0.279038 C9.053391,-0.042209 8.471629,-0.089957 7.986761,0.155973 C7.501894,0.401703 7.196229,0.899157 7.196229,1.44296 L7.196229,7.252309 L1.443016,7.252309 C0.646091,7.252309 0,7.8982 0,8.695125 L0,14.844375 C0,15.6413 0.645891,16.287391 1.443016,16.287391 L7.196229,16.287391 L7.196229,22.09674 C7.196229,22.640543 7.501894,23.137797 7.986761,23.383727 C8.471629,23.629657 9.05359,23.581909 9.492109,23.260662 L19.960817,12.933672 C20.33161,12.661971 20.55077,12.229445 20.55077,11.76975 C20.55077,11.310055 20.33161,10.87753 19.960817,10.605828 L19.960817,10.605828 Z M22.589952,12.933872 L33.058661,23.260662 C33.497379,23.581909 34.07914,23.629657 34.564008,23.383727 C35.048876,23.137997 35.35454,22.640543 35.35454,22.09674 L35.35454,16.287391 L41.107754,16.287391 C41.904679,16.287391 42.55077,15.6415 42.55077,14.844575 L42.55077,8.695325 C42.55077,7.8984 41.904879,7.252309 41.107754,7.252309 L35.35454,7.252309 L35.35454,1.44296 C35.35454,0.899157 35.048876,0.401903 34.564008,0.155973 C34.07914,-0.089957 33.497179,-0.042209 33.058661,0.279038 L22.589952,10.606028 C22.219159,10.877729 22,11.310255 22,11.76995 C22,12.229645 22.219159,12.66217 22.589952,12.933872 L22.589952,12.933872 Z" transform="translate(0 145)"/>
    <path fill="#3BC8F5" d="M26.05121,0.990403 L2.459091,0.990403 C1.152605,0.990403 0.097366,2.045642 0.097366,3.352127 L0.097366,29.35622 C0.097366,30.662706 1.152605,31.717945 2.459091,31.717945 L26.05121,31.717945 C27.357696,31.717945 28.412934,30.662706 28.412934,29.35622 L28.412934,3.352127 C28.412934,2.045642 27.357696,0.990403 26.05121,0.990403 Z M14.464676,27.522316 C8.161579,27.522316 3.059072,22.419808 3.059072,16.116711 C3.059072,9.813614 8.161579,4.711107 14.464676,4.711107 C20.767773,4.711107 25.87028,9.813614 25.87028,16.116711 C25.87028,22.419808 20.767773,27.522316 14.464676,27.522316 Z M16.126942,16.140614 C17.006308,15.487371 17.609301,14.281384 17.609301,12.924649 C17.609301,10.839296 16.227441,9.155939 14.493835,9.155939 C12.785354,9.155939 11.378369,10.839296 11.378369,12.924649 C11.378369,14.281384 11.981362,15.462246 12.860728,16.140614 C9.946259,16.467235 7.785533,17.798846 7.785533,21.567555 C7.785533,22.245922 14.443586,22.145424 14.443586,22.145424 C14.443586,22.145424 21.177013,22.195673 21.177013,21.567555 C21.177013,17.798846 19.041411,16.44211 16.126942,16.140614 Z M36.849249,9.77506 L49.141437,9.77506 C50.454466,9.77506 51.516064,8.713462 51.516064,7.400432 C51.516064,6.087403 50.454466,5.025805 49.141437,5.025805 L36.849249,5.025805 C35.53622,5.025805 34.474622,6.087403 34.474622,7.400432 C34.474622,8.713462 35.53622,9.77506 36.849249,9.77506 Z M49.141437,12.848107 L36.849249,12.848107 C35.53622,12.848107 34.474622,13.909705 34.474622,15.222734 C34.474622,16.535763 35.53622,17.597361 36.849249,17.597361 L49.141437,17.597361 C50.454466,17.597361 51.516064,16.535763 51.516064,15.222734 C51.516064,13.909705 50.454466,12.848107 49.141437,12.848107 Z M46.165016,20.39104 L36.367352,20.39104 C35.320784,20.39104 34.474622,21.452638 34.474622,22.765667 C34.474622,24.078696 35.320784,25.140295 36.367352,25.140295 L46.165016,25.140295 C47.211584,25.140295 48.057746,24.078696 48.057746,22.765667 C48.057746,21.452638 47.211584,20.39104 46.165016,20.39104 Z" transform="translate(0 368)"/>
    <path fill="#3BC8F5" d="M38.36,0.908 L5.14,0.908 C2.807,0.908 0.88,2.833 0.88,5.168 L0.88,34.74 C0.88,37.077 2.807,39 5.14,39 L38.36,39 C40.694,39 42.62,37.076 42.62,34.74 L42.62,5.17 C42.62,2.835 40.694,0.91 38.36,0.91 L38.36,0.908 Z M37.827,32.938 C37.827,33.758 37.172,34.414 36.352,34.414 L7.148,34.414 C6.328,34.414 5.673,33.758 5.673,32.939 L5.673,7.01 C5.673,6.192 6.329,5.537 7.148,5.537 L36.352,5.537 C37.172,5.537 37.827,6.192 37.827,7.011 L37.827,32.941 L37.827,32.938 Z M32.543,19.34 L22.508,19.34 C21.688,19.34 20.992,20.037 20.992,20.856 L20.992,22.33 C20.992,23.15 21.689,23.846 22.508,23.846 L32.543,23.846 C33.363,23.846 34.059,23.15 34.059,22.33 L34.059,20.856 C34.099,20.036 33.402,19.34 32.542,19.34 L32.543,19.34 Z M23.04,10.452 L22.016,9.428 C21.443,8.855 20.46,8.855 19.846,9.428 L13.988,15.285 L11.981,13.278 C11.409,12.705 10.426,12.705 9.811,13.278 L8.787,14.302 C8.214,14.876 8.214,15.859 8.787,16.472 L11.859,19.545 L12.883,20.569 C13.457,21.142 14.44,21.142 15.053,20.569 L23.041,12.581 C23.615,12.007 23.615,11.065 23.041,10.451 L23.04,10.452 Z M32.543,26.304 L22.508,26.304 C21.688,26.304 20.992,27 20.992,27.819 L20.992,29.293 C20.992,30.113 21.689,30.808 22.508,30.808 L32.543,30.808 C33.363,30.808 34.059,30.111 34.059,29.292 L34.059,27.82 C34.099,27 33.402,26.304 32.542,26.304 L32.543,26.304 Z" transform="translate(-1 410)"/>
  </g>
</svg>
